<svg width="36" height="36" viewBox="0 0 36 36" fill="none" xmlns="http://www.w3.org/2000/svg">
<path d="M26.1333 21.5123C25.6981 21.2951 23.5573 20.248 23.1587 20.1021C22.7587 19.9578 22.4686 19.8863 22.177 20.3209C21.8883 20.754 21.0531 21.7296 20.7996 22.0184C20.5461 22.3086 20.2911 22.3436 19.856 22.1278C19.4208 21.909 18.017 21.4526 16.3539 19.9767C15.0601 18.8276 14.1853 17.4086 13.9318 16.974C13.6783 16.5409 13.9054 16.3061 14.1223 16.0903C14.3186 15.8963 14.5589 15.5842 14.7758 15.3319C14.9941 15.0782 15.0659 14.8974 15.2125 14.6072C15.3575 14.3184 15.2857 14.0661 15.1758 13.8488C15.0659 13.6315 14.1955 11.498 13.8336 10.6303C13.479 9.78591 13.12 9.90112 12.8533 9.88653C12.5998 9.87487 12.3097 9.87195 12.0181 9.87195C11.728 9.87195 11.2562 9.97987 10.8576 10.4145C10.4591 10.8476 9.33371 11.8961 9.33371 14.0297C9.33371 16.1617 10.8942 18.2224 11.1111 18.5126C11.3294 18.8013 14.1824 23.1792 18.5504 25.0561C19.5893 25.5023 20.3996 25.7692 21.0326 25.9675C22.0759 26.2986 23.0254 26.2519 23.7741 26.1396C24.6108 26.0157 26.3501 25.0911 26.7135 24.079C27.0769 23.0669 27.0769 22.1992 26.967 22.0184C26.8586 21.8376 26.5685 21.7296 26.1318 21.5123H26.1333ZM18.1885 32.3084H18.1826C15.5887 32.3086 13.0425 31.6145 10.8107 30.2988L10.2818 29.9867L4.8001 31.4188L6.26246 26.0988L5.91812 25.5534C4.46813 23.2554 3.70105 20.5961 3.70553 17.8826C3.707 9.93466 10.2056 3.46842 18.1943 3.46842C22.0627 3.46842 25.6995 4.9705 28.4338 7.69466C29.7828 9.03139 30.8521 10.6211 31.5798 12.3719C32.3074 14.1226 32.6789 15.9996 32.6728 17.8942C32.6685 25.8421 26.1714 32.3084 18.1885 32.3084ZM30.5159 5.62529C28.9015 4.00789 26.9805 2.72546 24.8644 1.8523C22.7484 0.979143 20.4792 0.53263 18.1885 0.538634C8.58348 0.538634 0.766159 8.31883 0.761763 17.8811C0.761763 20.9378 1.56328 23.9215 3.08864 26.5509L0.615234 35.5386L9.85389 33.1265C12.4088 34.5118 15.2717 35.2378 18.1811 35.2382H18.1885C27.792 35.2382 35.6108 27.458 35.6152 17.8942C35.6222 15.6153 35.1752 13.3575 34.2999 11.2516C33.4247 9.14565 32.1385 7.23335 30.5159 5.62529Z" fill="white"/>
</svg>
